<svg xmlns="http://www.w3.org/2000/svg" viewBox="0 0 800 800">
  <!-- Background -->
  <defs>
    <linearGradient id="bgGradient" x1="0%" y1="0%" x2="100%" y2="100%">
      <stop offset="0%" stop-color="#213355" />
      <stop offset="100%" stop-color="#14213d" />
    </linearGradient>
    
    <!-- Diamond reflection gradient -->
    <linearGradient id="diamondGradient" x1="0%" y1="0%" x2="100%" y2="100%">
      <stop offset="0%" stop-color="#e0f7fa" />
      <stop offset="20%" stop-color="#bbdefb" />
      <stop offset="40%" stop-color="#90caf9" />
      <stop offset="60%" stop-color="#81d4fa" />
      <stop offset="80%" stop-color="#b3e5fc" />
      <stop offset="100%" stop-color="#e1f5fe" />
    </linearGradient>
    
    <!-- Diesel smoke filter -->
    <filter id="smoke" x="-50%" y="-50%" width="200%" height="200%">
      <feTurbulence type="fractalNoise" baseFrequency="0.01" numOctaves="3" result="noise" />
      <feDisplacementMap in="SourceGraphic" in2="noise" scale="20" xChannelSelector="R" yChannelSelector="G" />
    </filter>
  </defs>
  
  <!-- Main background -->
  <rect width="800" height="800" fill="url(#bgGradient)" />
  
  <!-- Decorative effects -->
  <circle cx="400" cy="400" r="300" fill="none" stroke="#FFD700" stroke-width="2" opacity="0.3" />
  <circle cx="400" cy="400" r="250" fill="none" stroke="#FFD700" stroke-width="1" opacity="0.2" />
  
  <!-- Abstract mountains (inspired by packaging) -->
  <path d="M0 650 L150 550 L300 620 L450 520 L600 600 L750 530 L800 550 L800 800 L0 800 Z" fill="#5D4037" opacity="0.7" />
  
  <!-- Blueberry elements -->
  <circle cx="200" cy="650" r="30" fill="#3F51B5" opacity="0.7" />
  <circle cx="250" cy="670" r="25" fill="#3F51B5" opacity="0.8" />
  <circle cx="180" cy="690" r="20" fill="#3F51B5" opacity="0.6" />
  
  <!-- Central diamond -->
  <g transform="translate(400, 350)">
    <!-- Diamond shape -->
    <path d="M0 -150 L120 0 L0 150 L-120 0 Z" fill="url(#diamondGradient)" stroke="#FFFFFF" stroke-width="3" />
    <path d="M0 -150 L120 0 L0 0 Z" fill="#FFFFFF" opacity="0.6" />
    <path d="M0 0 L-120 0 L0 150 Z" fill="#FFFFFF" opacity="0.3" />
    <path d="M0 0 L120 0 L0 150 Z" fill="#90CAF9" opacity="0.5" />
    
    <!-- Diamond eyes -->
    <circle cx="-40" cy="-20" r="15" fill="#000000" />
    <circle cx="40" cy="-20" r="15" fill="#000000" />
    <circle cx="-40" cy="-20" r="5" fill="#FFFFFF" />
    <circle cx="40" cy="-20" r="5" fill="#FFFFFF" />
    
    <!-- Diamond smile -->
    <path d="M-50 30 Q0 80 50 30" fill="none" stroke="#000000" stroke-width="8" stroke-linecap="round" />
  </g>
  
  <!-- "Diesel" smoke effect -->
  <g filter="url(#smoke)" opacity="0.3">
    <path d="M300 300 Q400 200 500 300 T700 300" fill="none" stroke="#FFFFFF" stroke-width="10" />
    <path d="M300 320 Q400 220 500 320 T700 320" fill="none" stroke="#FFFFFF" stroke-width="8" />
    <path d="M300 340 Q400 240 500 340 T700 340" fill="none" stroke="#FFFFFF" stroke-width="6" />
  </g>
  
  <!-- Candy elements -->
  <circle cx="600" cy="650" r="20" fill="#F06292" />
  <circle cx="650" cy="670" r="15" fill="#BA68C8" />
  <circle cx="630" cy="620" r="18" fill="#4CAF50" />
  
  <!-- Title -->
  <text x="400" y="550" font-family="Arial, sans-serif" font-weight="bold" font-size="40" fill="#FFFFFF" text-anchor="middle">BLING BLAOW</text>
  
  <!-- Attributes -->
  <text x="400" y="600" font-family="Arial, sans-serif" font-size="20" fill="#FFD700" text-anchor="middle">DIESEL · BLUEBERRIES · CANDY</text>
  
  <!-- Slogan -->
  <text x="400" y="650" font-family="Arial, sans-serif" font-style="italic" font-size="24" fill="#FFFFFF" text-anchor="middle">"PUFF, PUFF, FACET"</text>
  
  <!-- Bottom info -->
  <text x="400" y="720" font-family="Arial, sans-serif" font-size="16" fill="#CCCCCC" text-anchor="middle">ORIGIN: COMPOUND GENETICS</text>
  <text x="400" y="750" font-family="Arial, sans-serif" font-size="16" fill="#CCCCCC" text-anchor="middle">A VOYAGE BLOOM EXCLUSIVE</text>
</svg>