<svg xmlns="http://www.w3.org/2000/svg" viewBox="0 0 800 800">
  <!-- Background -->
  <rect width="800" height="800" fill="#2d2d2d"/>
  
  <!-- Diamond background glow -->
  <circle cx="400" cy="400" r="250" fill="#84ffff" opacity="0.15"/>
  
  <!-- Hot air balloon body - multi-colored stripes -->
  <path d="M280 500 Q400 200 520 500 Z" fill="#444" stroke="#333" stroke-width="5"/>
  
  <!-- Colored stripes on balloon -->
  <path d="M300 480 Q400 220 500 480 Z" fill="none" stroke="#ff5722" stroke-width="30"/>
  <path d="M320 460 Q400 240 480 460 Z" fill="none" stroke="#ffeb3b" stroke-width="30"/>
  <path d="M340 440 Q400 260 460 440 Z" fill="none" stroke="#8bc34a" stroke-width="30"/>
  <path d="M360 420 Q400 280 440 420 Z" fill="none" stroke="#03a9f4" stroke-width="30"/>
  <path d="M380 400 Q400 300 420 400 Z" fill="none" stroke="#9c27b0" stroke-width="30"/>
  
  <!-- Balloon basket -->
  <rect x="370" y="500" width="60" height="40" fill="#8d6e63" stroke="#5d4037" stroke-width="3" rx="5" ry="5"/>
  <line x1="370" y1="500" x2="310" y2="480" stroke="#795548" stroke-width="2"/>
  <line x1="430" y1="500" x2="490" y2="480" stroke="#795548" stroke-width="2"/>
  
  <!-- Character face -->
  <circle cx="400" cy="350" r="70" fill="#fffde7"/>
  
  <!-- Goggles strap -->
  <rect x="320" y="350" width="160" height="15" fill="#ffca28" rx="5" ry="5"/>
  
  <!-- Goggles -->
  <ellipse cx="360" cy="350" rx="30" ry="25" fill="none" stroke="#ff6f00" stroke-width="5"/>
  <ellipse cx="440" cy="350" rx="30" ry="25" fill="none" stroke="#ff6f00" stroke-width="5"/>
  <ellipse cx="360" cy="350" rx="25" ry="20" fill="#b3e5fc"/>
  <ellipse cx="440" cy="350" rx="25" ry="20" fill="#b3e5fc"/>
  
  <!-- Eyes -->
  <ellipse cx="360" cy="350" rx="10" ry="15" fill="#333"/>
  <ellipse cx="440" cy="350" rx="10" ry="15" fill="#333"/>
  <circle cx="365" cy="345" r="3" fill="white"/>
  <circle cx="445" cy="345" r="3" fill="white"/>
  
  <!-- Smile -->
  <path d="M370 380 Q400 410 430 380" fill="none" stroke="#333" stroke-width="5" stroke-linecap="round"/>
  
  <!-- Arms -->
  <path d="M320 400 Q300 420 280 410" fill="none" stroke="#fffde7" stroke-width="8" stroke-linecap="round"/>
  <path d="M480 400 Q500 420 520 410" fill="none" stroke="#fffde7" stroke-width="8" stroke-linecap="round"/>
  
  <!-- Diamond -->
  <polygon points="400,580 430,620 400,660 370,620" fill="#84ffff" stroke="#4dd0e1" stroke-width="2">
    <animate attributeName="opacity" values="0.7;1;0.7" dur="3s" repeatCount="indefinite"/>
  </polygon>
  
  <!-- Sparkles around diamond -->
  <circle cx="400" cy="570" r="5" fill="white">
    <animate attributeName="opacity" values="0;1;0" dur="2s" repeatCount="indefinite"/>
  </circle>
  <circle cx="440" cy="620" r="3" fill="white">
    <animate attributeName="opacity" values="0;1;0" dur="1.5s" begin="0.3s" repeatCount="indefinite"/>
  </circle>
  <circle cx="400" cy="670" r="4" fill="white">
    <animate attributeName="opacity" values="0;1;0" dur="2.5s" begin="0.7s" repeatCount="indefinite"/>
  </circle>
  <circle cx="360" cy="620" r="3" fill="white">
    <animate attributeName="opacity" values="0;1;0" dur="1.8s" begin="1.1s" repeatCount="indefinite"/>
  </circle>
  
  <!-- NFT text -->
  <text x="400" y="730" font-family="Arial, sans-serif" font-size="36" font-weight="bold" fill="white" text-anchor="middle">MYLES HIGH #001</text>
  
  <!-- Attribute data -->
  <text x="400" y="770" font-family="Arial, sans-serif" font-size="18" fill="#bbbbbb" text-anchor="middle">ATTRIBUTES: SKITTLES AND GAS | ORIGIN: FIYA FARMER</text>
  
  <!-- Caption -->
  <text x="400" y="100" font-family="Arial, sans-serif" font-size="24" font-style="italic" fill="white" text-anchor="middle">"PREZZURE MAKES DIAMONDS"</text>
</svg>