<svg xmlns="http://www.w3.org/2000/svg" viewBox="0 0 1080 1080" width="1080" height="1080"><defs><linearGradient id="bg" x1="0" y1="0" x2="1" y2="1"><stop offset="0%" stop-color="#0a0a0a"/><stop offset="100%" stop-color="#0d0d00"/></linearGradient></defs><rect width="1080" height="1080" fill="url(#bg)"/><text x="540" y="70" text-anchor="middle" font-family="system-ui,sans-serif" font-size="24" font-weight="700" fill="#c9a227" letter-spacing="3" opacity="0.7">SCAN PERFORMANCE</text><text x="540" y="120" text-anchor="middle" font-family="system-ui,sans-serif" font-size="52" font-weight="900" fill="white">Plain QR vs QRON</text><text x="540" y="165" text-anchor="middle" font-family="system-ui,sans-serif" font-size="20" fill="#6b6b6b">Scan rate comparison — AuthiChain verified art wins every time</text><rect x="60" y="210" width="440" height="580" rx="20" fill="#111111" stroke="#444444" stroke-width="1"/><text x="280" y="260" text-anchor="middle" font-family="system-ui,sans-serif" font-size="22" font-weight="700" fill="#888888">Plain QR Code</text><rect x="130" y="290" width="300" height="300" rx="8" fill="#ffffff"/><rect x="160" y="320" width="80" height="80" fill="#000000"/><rect x="300" y="320" width="80" height="80" fill="#000000"/><rect x="160" y="460" width="80" height="80" fill="#000000"/><rect x="255" y="330" width="10" height="10" fill="#000"/><rect x="270" y="330" width="10" height="10" fill="#000"/><rect x="255" y="345" width="10" height="10" fill="#000"/><rect x="285" y="345" width="10" height="10" fill="#000"/><rect x="255" y="360" width="10" height="10" fill="#000"/><rect x="270" y="360" width="10" height="10" fill="#000"/><rect x="285" y="360" width="10" height="10" fill="#000"/><rect x="255" y="390" width="10" height="10" fill="#000"/><rect x="270" y="400" width="10" height="10" fill="#000"/><rect x="285" y="390" width="10" height="10" fill="#000"/><rect x="310" y="400" width="10" height="10" fill="#000"/><rect x="330" y="390" width="10" height="10" fill="#000"/><rect x="310" y="430" width="10" height="10" fill="#000"/><rect x="330" y="420" width="10" height="10" fill="#000"/><rect x="255" y="420" width="10" height="10" fill="#000"/><rect x="270" y="430" width="10" height="10" fill="#000"/><rect x="190" y="360" width="10" height="10" fill="#000"/><rect x="205" y="360" width="10" height="10" fill="#000"/><rect x="190" y="400" width="10" height="10" fill="#000"/><rect x="205" y="410" width="10" height="10" fill="#000"/><rect x="310" y="460" width="80" height="80" fill="#000000"/><text x="280" y="630" text-anchor="middle" font-family="system-ui,sans-serif" font-size="56" font-weight="900" fill="#888888">75%</text><text x="280" y="665" text-anchor="middle" font-family="system-ui,sans-serif" font-size="16" fill="#666666">avg scan rate</text><rect x="100" y="690" width="360" height="40" rx="6" fill="#222222"/><rect x="100" y="690" width="270" height="40" rx="6" fill="#555555"/><text x="280" y="726" text-anchor="middle" font-family="system-ui,sans-serif" font-size="13" fill="#999">75% engagement</text><rect x="580" y="210" width="440" height="580" rx="20" fill="#111100" stroke="#c9a227" stroke-width="1.5"/><text x="800" y="260" text-anchor="middle" font-family="system-ui,sans-serif" font-size="22" font-weight="700" fill="#c9a227">QRON Art QR Code</text><rect x="650" y="290" width="300" height="300" rx="8" fill="#0a0a0a" stroke="#c9a22733" stroke-width="1"/><circle cx="800" cy="440" r="80" fill="none" stroke="#c9a22740" stroke-width="40"/><circle cx="800" cy="440" r="60" fill="none" stroke="#00bfff30" stroke-width="20"/><rect x="770" y="410" width="60" height="60" fill="none" stroke="#c9a227" stroke-width="3" rx="4"/><rect x="785" y="425" width="12" height="12" fill="#c9a227"/><rect x="803" y="425" width="12" height="12" fill="#c9a227"/><rect x="785" y="443" width="12" height="12" fill="#c9a227"/><rect x="803" y="443" width="12" height="12" fill="#c9a227" opacity="0.5"/><circle cx="800" cy="440" r="8" fill="#c9a227" opacity="0.6"/><text x="800" y="630" text-anchor="middle" font-family="system-ui,sans-serif" font-size="56" font-weight="900" fill="#c9a227">~100%</text><text x="800" y="665" text-anchor="middle" font-family="system-ui,sans-serif" font-size="16" fill="#9e9e9e">avg scan rate</text><rect x="620" y="690" width="360" height="40" rx="6" fill="#222200"/><rect x="620" y="690" width="360" height="40" rx="6" fill="#c9a22790"/><text x="800" y="726" text-anchor="middle" font-family="system-ui,sans-serif" font-size="13" fill="#111">100% engagement</text><rect x="490" y="430" width="100" height="4" fill="none"/><text x="540" y="445" text-anchor="middle" font-family="system-ui,sans-serif" font-size="28" font-weight="900" fill="#c9a227">VS</text><rect x="60" y="840" width="960" height="180" rx="16" fill="#0d0d00" stroke="#c9a22733" stroke-width="1"/><text x="540" y="885" text-anchor="middle" font-family="system-ui,sans-serif" font-size="22" font-weight="700" fill="white">Why QRON Outperforms Plain QR</text><text x="230" y="925" text-anchor="middle" font-family="system-ui,sans-serif" font-size="15" fill="#c9a227">Visual Attention</text><text x="230" y="945" text-anchor="middle" font-family="system-ui,sans-serif" font-size="13" fill="#6b6b6b">Art draws the eye</text><text x="540" y="925" text-anchor="middle" font-family="system-ui,sans-serif" font-size="15" fill="#c9a227">Brand Trust</text><text x="540" y="945" text-anchor="middle" font-family="system-ui,sans-serif" font-size="13" fill="#6b6b6b">Verified identity</text><text x="850" y="925" text-anchor="middle" font-family="system-ui,sans-serif" font-size="15" fill="#c9a227">Crypto Proof</text><text x="850" y="945" text-anchor="middle" font-family="system-ui,sans-serif" font-size="13" fill="#6b6b6b">Ed25519 signed</text><text x="540" y="995" text-anchor="middle" font-family="system-ui,sans-serif" font-size="14" fill="#3a3a3a">&#9670; AuthiChain Protocol · qron.space · ~25% scan lift guarantee</text></svg>