<svg xmlns="http://www.w3.org/2000/svg" viewBox="0 0 1080 1080" width="1080" height="1080">
  <defs>
    <linearGradient id="bg" x1="0%" y1="0%" x2="100%" y2="100%">
      <stop offset="0%" stop-color="#050505"/>
      <stop offset="100%" stop-color="#030308"/>
    </linearGradient>
    <linearGradient id="deviceGrad" x1="0%" y1="0%" x2="100%" y2="100%">
      <stop offset="0%" stop-color="#1a1a1a"/>
      <stop offset="100%" stop-color="#0d0d0d"/>
    </linearGradient>
    <linearGradient id="screenGrad" x1="0%" y1="0%" x2="0%" y2="100%">
      <stop offset="0%" stop-color="#0a0520"/>
      <stop offset="100%" stop-color="#050310"/>
    </linearGradient>
    <radialGradient id="screenGlow" cx="50%" cy="50%" r="50%">
      <stop offset="0%" stop-color="#6600ff" stop-opacity="0.2"/>
      <stop offset="100%" stop-color="#6600ff" stop-opacity="0"/>
    </radialGradient>
    <filter id="glow4">
      <feGaussianBlur stdDeviation="4" result="b"/>
      <feMerge><feMergeNode in="b"/><feMergeNode in="SourceGraphic"/></feMerge>
    </filter>
    <filter id="glow10">
      <feGaussianBlur stdDeviation="10" result="b"/>
      <feMerge><feMergeNode in="b"/><feMergeNode in="SourceGraphic"/></feMerge>
    </filter>
  </defs>
  <rect width="1080" height="1080" fill="url(#bg)"/>
  <g opacity="0.04" stroke="#6600ff" stroke-width="0.5">
    <line x1="0" y1="108" x2="1080" y2="108"/><line x1="0" y1="216" x2="1080" y2="216"/>
    <line x1="0" y1="324" x2="1080" y2="324"/><line x1="0" y1="432" x2="1080" y2="432"/>
    <line x1="0" y1="540" x2="1080" y2="540"/><line x1="108" y1="0" x2="108" y2="1080"/>
    <line x1="216" y1="0" x2="216" y2="1080"/><line x1="324" y1="0" x2="324" y2="1080"/>
    <line x1="432" y1="0" x2="432" y2="1080"/><line x1="540" y1="0" x2="540" y2="1080"/>
    <line x1="648" y1="0" x2="648" y2="1080"/><line x1="756" y1="0" x2="756" y2="1080"/>
    <line x1="864" y1="0" x2="864" y2="1080"/>
  </g>
  <g transform="translate(180, 120)">
    <rect width="720" height="500" rx="20" fill="url(#deviceGrad)" stroke="#333" stroke-width="2"/>
    <rect x="20" y="20" width="680" height="460" rx="10" fill="#0a0a0a" stroke="#1a1a1a" stroke-width="1"/>
    <rect x="28" y="28" width="664" height="444" rx="7" fill="url(#screenGrad)"/>
    <rect x="28" y="28" width="664" height="444" rx="7" fill="url(#screenGlow)"/>
    <rect x="28" y="28" width="664" height="40" rx="7" fill="#080808" opacity="0.8"/>
    <circle cx="52" cy="48" r="7" fill="#ff5555" opacity="0.7"/>
    <circle cx="72" cy="48" r="7" fill="#ffcc00" opacity="0.7"/>
    <circle cx="92" cy="48" r="7" fill="#44ff44" opacity="0.7"/>
    <text x="360" y="53" text-anchor="middle" font-family="system-ui,sans-serif" font-size="14" fill="#666">qron.space - QRON Generator</text>
    <rect x="28" y="68" width="200" height="404" rx="0" fill="#060606" opacity="0.9"/>
    <text x="128" y="100" text-anchor="middle" font-family="system-ui,sans-serif" font-size="13" fill="#555" font-weight="600" letter-spacing="2">PRESETS</text>
    <line x1="40" y1="112" x2="216" y2="112" stroke="#1a1a1a" stroke-width="1"/>
    <rect x="36" y="120" width="184" height="44" rx="6" fill="#c9a22722" stroke="#c9a22766" stroke-width="1"/>
    <text x="128" y="140" text-anchor="middle" font-family="system-ui,sans-serif" font-size="12" fill="#c9a227">&#9670; Static Portal</text>
    <text x="128" y="156" text-anchor="middle" font-family="system-ui,sans-serif" font-size="10" fill="#666">Gold Ring Style</text>
    <rect x="36" y="172" width="184" height="44" rx="6" fill="#08080a"/>
    <text x="128" y="192" text-anchor="middle" font-family="system-ui,sans-serif" font-size="12" fill="#888">Chromatic Portal</text>
    <text x="128" y="208" text-anchor="middle" font-family="system-ui,sans-serif" font-size="10" fill="#555">Rainbow Spectrum</text>
    <rect x="36" y="224" width="184" height="44" rx="6" fill="#08080a"/>
    <text x="128" y="244" text-anchor="middle" font-family="system-ui,sans-serif" font-size="12" fill="#888">Neon Matrix</text>
    <text x="128" y="260" text-anchor="middle" font-family="system-ui,sans-serif" font-size="10" fill="#555">Cyberpunk Grid</text>
    <rect x="36" y="276" width="184" height="44" rx="6" fill="#08080a"/>
    <text x="128" y="296" text-anchor="middle" font-family="system-ui,sans-serif" font-size="12" fill="#8855ff">&#9670; Galactic PRO</text>
    <text x="128" y="312" text-anchor="middle" font-family="system-ui,sans-serif" font-size="10" fill="#555">Deep Space</text>
    <rect x="236" y="68" width="456" height="404" rx="0" fill="#030303"/>
    <rect x="300" y="90" width="328" height="328" rx="10" fill="#0a0a08" stroke="#c9a22744" stroke-width="1" filter="url(#glow10)"/>
    <rect x="318" y="108" width="292" height="292" rx="6" fill="#080808" stroke="#c9a227" stroke-width="2.5"/>
    <rect x="330" y="120" width="42" height="42" rx="2" fill="none" stroke="#c9a227" stroke-width="2"/>
    <rect x="336" y="126" width="30" height="30" rx="1" fill="#c9a227"/>
    <rect x="341" y="131" width="20" height="20" rx="1" fill="#080808"/>
    <rect x="345" y="135" width="12" height="12" fill="#c9a227"/>
    <rect x="538" y="120" width="42" height="42" rx="2" fill="none" stroke="#c9a227" stroke-width="2"/>
    <rect x="544" y="126" width="30" height="30" rx="1" fill="#c9a227"/>
    <rect x="549" y="131" width="20" height="20" rx="1" fill="#080808"/>
    <rect x="553" y="135" width="12" height="12" fill="#c9a227"/>
    <rect x="330" y="328" width="42" height="42" rx="2" fill="none" stroke="#c9a227" stroke-width="2"/>
    <rect x="336" y="334" width="30" height="30" rx="1" fill="#c9a227"/>
    <rect x="341" y="339" width="20" height="20" rx="1" fill="#080808"/>
    <rect x="345" y="343" width="12" height="12" fill="#c9a227"/>
    <g fill="#c9a227" opacity="0.7">
      <rect x="384" y="120" width="8" height="8"/><rect x="398" y="120" width="8" height="8"/>
      <rect x="412" y="120" width="8" height="8"/><rect x="426" y="120" width="8" height="8"/>
      <rect x="440" y="120" width="8" height="8"/><rect x="510" y="120" width="8" height="8"/>
      <rect x="384" y="134" width="8" height="8"/><rect x="412" y="134" width="8" height="8"/>
      <rect x="440" y="134" width="8" height="8"/><rect x="580" y="134" width="8" height="8"/>
      <rect x="384" y="148" width="8" height="8"/><rect x="398" y="148" width="8" height="8"/>
      <rect x="594" y="148" width="8" height="8"/><rect x="330" y="176" width="8" height="8"/>
      <rect x="344" y="176" width="8" height="8"/><rect x="384" y="176" width="8" height="8"/>
      <rect x="412" y="176" width="8" height="8"/><rect x="580" y="176" width="8" height="8"/>
      <rect x="330" y="190" width="8" height="8"/><rect x="370" y="190" width="8" height="8"/>
      <rect x="524" y="190" width="8" height="8"/><rect x="330" y="204" width="8" height="8"/>
      <rect x="358" y="204" width="8" height="8"/><rect x="384" y="204" width="8" height="8"/>
      <rect x="440" y="204" width="8" height="8"/><rect x="496" y="204" width="8" height="8"/>
      <rect x="330" y="232" width="8" height="8"/><rect x="356" y="232" width="8" height="8"/>
      <rect x="398" y="232" width="8" height="8"/><rect x="468" y="232" width="8" height="8"/>
    </g>
    <circle cx="464" cy="254" r="10" fill="#c9a227" opacity="0.2" filter="url(#glow4)"/>
    <circle cx="464" cy="254" r="4" fill="#e8c547" opacity="0.7"/>
    <circle cx="464" cy="254" r="100" fill="none" stroke="#c9a227" stroke-width="1" opacity="0.1" stroke-dasharray="10 5"/>
    <rect x="236" y="434" width="456" height="38" fill="#060606" opacity="0.9"/>
    <text x="360" y="457" text-anchor="middle" font-family="monospace" font-size="11" fill="#c9a227">Ed25519 Signed | Blockchain Anchored | qron.space</text>
  </g>
  <g transform="translate(190, 58)">
    <rect width="700" height="44" rx="22" fill="#0d0a00" stroke="#c9a227" stroke-width="1.5"/>
    <text x="350" y="28" text-anchor="middle" font-family="system-ui,sans-serif" font-size="16" font-weight="700" fill="#c9a227" letter-spacing="6">LIMITED EDITION | CREATOR SERIES</text>
  </g>
  <text x="540" y="718" text-anchor="middle" font-family="system-ui,sans-serif" font-size="56" font-weight="900" fill="white">QRON STUDIO</text>
  <text x="540" y="764" text-anchor="middle" font-family="system-ui,sans-serif" font-size="20" fill="#c9a227" letter-spacing="4">Create | Authenticate | Own</text>
  <g transform="translate(170, 786)">
    <rect width="110" height="32" rx="16" fill="#0d0a00" stroke="#c9a22766" stroke-width="1"/>
    <text x="55" y="21" text-anchor="middle" font-family="system-ui,sans-serif" font-size="12" fill="#c9a227">AI-Powered</text>
  </g>
  <g transform="translate(295, 786)">
    <rect width="130" height="32" rx="16" fill="#0d0a00" stroke="#c9a22766" stroke-width="1"/>
    <text x="65" y="21" text-anchor="middle" font-family="system-ui,sans-serif" font-size="12" fill="#c9a227">Ed25519 Signed</text>
  </g>
  <g transform="translate(440, 786)">
    <rect width="120" height="32" rx="16" fill="#0d0a00" stroke="#c9a22766" stroke-width="1"/>
    <text x="60" y="21" text-anchor="middle" font-family="system-ui,sans-serif" font-size="12" fill="#c9a227">100% Scannable</text>
  </g>
  <g transform="translate(575, 786)">
    <rect width="120" height="32" rx="16" fill="#0a0010" stroke="#6600ff66" stroke-width="1"/>
    <text x="60" y="21" text-anchor="middle" font-family="system-ui,sans-serif" font-size="12" fill="#8855ff">Blockchain</text>
  </g>
  <g transform="translate(710, 786)">
    <rect width="120" height="32" rx="16" fill="#0d0a00" stroke="#c9a22766" stroke-width="1"/>
    <text x="60" y="21" text-anchor="middle" font-family="system-ui,sans-serif" font-size="12" fill="#c9a227">AuthiChain</text>
  </g>
  <rect x="0" y="850" width="1080" height="230" fill="#030303"/>
  <rect x="0" y="850" width="1080" height="1" fill="#c9a22744"/>
  <text x="540" y="896" text-anchor="middle" font-family="system-ui,sans-serif" font-size="22" font-weight="700" fill="white">Own Your Proof of Creation</text>
  <text x="540" y="928" text-anchor="middle" font-family="system-ui,sans-serif" font-size="15" fill="#666">Every QRON you generate is cryptographically yours - verifiable by anyone, always.</text>
  <line x1="200" y1="950" x2="880" y2="950" stroke="#c9a22722" stroke-width="1"/>
  <text x="540" y="990" text-anchor="middle" font-family="system-ui,sans-serif" font-size="18" font-weight="700" fill="#c9a227">QRON | AI Living QR Art</text>
  <text x="540" y="1020" text-anchor="middle" font-family="system-ui,sans-serif" font-size="12" fill="#444" letter-spacing="2">qron.space | AuthiChain Protocol | Cryptographically Verified</text>
  <text x="540" y="1055" text-anchor="middle" font-family="system-ui,sans-serif" font-size="12" fill="#333">The Creative Layer of the AuthiChain Protocol</text>
</svg>
