<svg xmlns="http://www.w3.org/2000/svg" viewBox="0 0 600 600" width="600" height="600">
  <defs>
    <radialGradient id="bg3" cx="40%" cy="40%" r="70%">
      <stop offset="0%" stop-color="#1a0a1a"/>
      <stop offset="100%" stop-color="#0a050a"/>
    </radialGradient>
    <linearGradient id="g3" x1="0%" y1="0%" x2="100%" y2="100%">
      <stop offset="0%" stop-color="#a855f7"/>
      <stop offset="50%" stop-color="#c9a227"/>
      <stop offset="100%" stop-color="#ec4899"/>
    </linearGradient>
    <filter id="glow3"><feGaussianBlur stdDeviation="5" result="b"/><feMerge><feMergeNode in="b"/><feMergeNode in="SourceGraphic"/></feMerge></filter>
  </defs>
  <rect width="600" height="600" fill="url(#bg3)"/>
  <!-- QR finder patterns - neon style -->
  <g filter="url(#glow3)">
    <rect x="36" y="36" width="136" height="136" rx="10" fill="none" stroke="#a855f7" stroke-width="6"/>
    <rect x="56" y="56" width="96" height="96" rx="6" fill="none" stroke="#ec4899" stroke-width="3"/>
    <rect x="76" y="76" width="56" height="56" rx="4" fill="url(#g3)"/>
    <rect x="428" y="36" width="136" height="136" rx="10" fill="none" stroke="#a855f7" stroke-width="6"/>
    <rect x="448" y="56" width="96" height="96" rx="6" fill="none" stroke="#ec4899" stroke-width="3"/>
    <rect x="468" y="76" width="56" height="56" rx="4" fill="url(#g3)"/>
    <rect x="36" y="428" width="136" height="136" rx="10" fill="none" stroke="#a855f7" stroke-width="6"/>
    <rect x="56" y="448" width="96" height="96" rx="6" fill="none" stroke="#ec4899" stroke-width="3"/>
    <rect x="76" y="468" width="56" height="56" rx="4" fill="url(#g3)"/>
  </g>
  <!-- Circuit-like connecting lines -->
  <g stroke="#a855f7" stroke-width="1.5" fill="none" opacity="0.3">
    <path d="M180,104 H220 V200 H300"/>
    <path d="M428,104 H400 V200 H340"/>
    <path d="M104,180 V220 H200 V280"/>
    <path d="M104,428 V400 H200 V340"/>
    <path d="M300,420 V460 H400"/>
    <path d="M420,300 H460 V200"/>
  </g>
  <!-- Data modules - cyberpunk grid -->
  <g opacity="0.8">
    <rect x="210" y="210" width="20" height="20" rx="2" fill="#a855f7"/>
    <rect x="240" y="210" width="20" height="20" rx="2" fill="#ec4899"/>
    <rect x="280" y="220" width="20" height="20" rx="2" fill="#c9a227"/>
    <rect x="310" y="210" width="20" height="20" rx="2" fill="#a855f7"/>
    <rect x="350" y="220" width="20" height="20" rx="2" fill="#ec4899"/>
    <rect x="380" y="210" width="20" height="20" rx="2" fill="#c9a227"/>
    <rect x="210" y="250" width="20" height="20" rx="2" fill="#c9a227"/>
    <rect x="250" y="260" width="20" height="20" rx="2" fill="#a855f7"/>
    <rect x="300" y="250" width="20" height="20" rx="2" fill="#ec4899"/>
    <rect x="340" y="260" width="20" height="20" rx="2" fill="#c9a227"/>
    <rect x="380" y="250" width="20" height="20" rx="2" fill="#a855f7"/>
    <rect x="220" y="300" width="20" height="20" rx="2" fill="#ec4899"/>
    <rect x="260" y="290" width="20" height="20" rx="2" fill="#c9a227"/>
    <rect x="300" y="300" width="20" height="20" rx="2" fill="#a855f7"/>
    <rect x="350" y="290" width="20" height="20" rx="2" fill="#ec4899"/>
    <rect x="380" y="300" width="20" height="20" rx="2" fill="#c9a227"/>
    <rect x="210" y="340" width="20" height="20" rx="2" fill="#a855f7"/>
    <rect x="260" y="340" width="20" height="20" rx="2" fill="#c9a227"/>
    <rect x="310" y="350" width="20" height="20" rx="2" fill="#ec4899"/>
    <rect x="360" y="340" width="20" height="20" rx="2" fill="#a855f7"/>
    <rect x="220" y="380" width="20" height="20" rx="2" fill="#c9a227"/>
    <rect x="280" y="380" width="20" height="20" rx="2" fill="#ec4899"/>
    <rect x="340" y="380" width="20" height="20" rx="2" fill="#a855f7"/>
    <rect x="380" y="390" width="20" height="20" rx="2" fill="#c9a227"/>
  </g>
  <!-- Central diamond accent -->
  <g transform="translate(300,300)" filter="url(#glow3)" opacity="0.6">
    <polygon points="0,-50 50,0 0,50 -50,0" fill="none" stroke="url(#g3)" stroke-width="2"/>
    <polygon points="0,-30 30,0 0,30 -30,0" fill="url(#g3)" opacity="0.25"/>
  </g>
  <!-- Edge data modules -->
  <g opacity="0.45">
    <rect x="40" y="220" width="16" height="16" rx="2" fill="#a855f7"/>
    <rect x="40" y="260" width="16" height="16" rx="2" fill="#ec4899"/>
    <rect x="40" y="310" width="16" height="16" rx="2" fill="#c9a227"/>
    <rect x="40" y="360" width="16" height="16" rx="2" fill="#a855f7"/>
    <rect x="544" y="230" width="16" height="16" rx="2" fill="#ec4899"/>
    <rect x="544" y="280" width="16" height="16" rx="2" fill="#a855f7"/>
    <rect x="544" y="330" width="16" height="16" rx="2" fill="#c9a227"/>
    <rect x="544" y="380" width="16" height="16" rx="2" fill="#ec4899"/>
  </g>
  <!-- Bottom right alignment pattern -->
  <g opacity="0.6">
    <rect x="430" y="430" width="22" height="22" rx="3" fill="#a855f7"/>
    <rect x="465" y="440" width="22" height="22" rx="3" fill="#ec4899"/>
    <rect x="500" y="430" width="22" height="22" rx="3" fill="#c9a227"/>
    <rect x="535" y="440" width="22" height="22" rx="3" fill="#a855f7"/>
    <rect x="440" y="475" width="22" height="22" rx="3" fill="#c9a227"/>
    <rect x="475" y="470" width="22" height="22" rx="3" fill="#a855f7"/>
    <rect x="520" y="475" width="22" height="22" rx="3" fill="#ec4899"/>
    <rect x="540" y="510" width="22" height="22" rx="3" fill="#c9a227"/>
    <rect x="440" y="520" width="22" height="22" rx="3" fill="#ec4899"/>
    <rect x="500" y="520" width="22" height="22" rx="3" fill="#a855f7"/>
  </g>
</svg>