<svg xmlns="http://www.w3.org/2000/svg" viewBox="0 0 600 600" width="600" height="600">
  <defs>
    <radialGradient id="bg1" cx="50%" cy="50%" r="60%">
      <stop offset="0%" stop-color="#1a1400"/>
      <stop offset="100%" stop-color="#0a0800"/>
    </radialGradient>
    <linearGradient id="g1" x1="0%" y1="0%" x2="100%" y2="100%">
      <stop offset="0%" stop-color="#ffd700"/>
      <stop offset="100%" stop-color="#c9a227"/>
    </linearGradient>
    <filter id="glow1"><feGaussianBlur stdDeviation="4" result="b"/><feMerge><feMergeNode in="b"/><feMergeNode in="SourceGraphic"/></feMerge></filter>
  </defs>
  <rect width="600" height="600" fill="url(#bg1)"/>
  <!-- QR finder patterns -->
  <g filter="url(#glow1)">
    <rect x="40" y="40" width="140" height="140" rx="12" fill="none" stroke="url(#g1)" stroke-width="8"/>
    <rect x="60" y="60" width="100" height="100" rx="6" fill="none" stroke="#c9a227" stroke-width="4"/>
    <rect x="80" y="80" width="60" height="60" rx="4" fill="url(#g1)"/>
    <rect x="420" y="40" width="140" height="140" rx="12" fill="none" stroke="url(#g1)" stroke-width="8"/>
    <rect x="440" y="60" width="100" height="100" rx="6" fill="none" stroke="#c9a227" stroke-width="4"/>
    <rect x="460" y="80" width="60" height="60" rx="4" fill="url(#g1)"/>
    <rect x="40" y="420" width="140" height="140" rx="12" fill="none" stroke="url(#g1)" stroke-width="8"/>
    <rect x="60" y="440" width="100" height="100" rx="6" fill="none" stroke="#c9a227" stroke-width="4"/>
    <rect x="80" y="460" width="60" height="60" rx="4" fill="url(#g1)"/>
  </g>
  <!-- Data modules - artistic pattern -->
  <g opacity="0.85">
    <rect x="220" y="40" width="24" height="24" rx="3" fill="#e8c547"/>
    <rect x="260" y="40" width="24" height="24" rx="3" fill="#c9a227"/>
    <rect x="300" y="60" width="24" height="24" rx="3" fill="#ffd700"/>
    <rect x="340" y="40" width="24" height="24" rx="3" fill="#c9a227"/>
    <rect x="220" y="80" width="24" height="24" rx="3" fill="#ffd700"/>
    <rect x="300" y="100" width="24" height="24" rx="3" fill="#e8c547"/>
    <rect x="340" y="80" width="24" height="24" rx="3" fill="#c9a227"/>
    <rect x="260" y="120" width="24" height="24" rx="3" fill="#ffd700"/>
    <rect x="220" y="140" width="24" height="24" rx="3" fill="#c9a227"/>
    <rect x="340" y="140" width="24" height="24" rx="3" fill="#e8c547"/>
  </g>
  <!-- Central art area - shield emblem -->
  <g transform="translate(300,300)" filter="url(#glow1)">
    <polygon points="0,-100 85,-50 85,50 0,100 -85,50 -85,-50" fill="none" stroke="url(#g1)" stroke-width="3" opacity="0.6"/>
    <polygon points="0,-70 60,-35 60,35 0,70 -60,35 -60,-35" fill="none" stroke="#c9a227" stroke-width="2" opacity="0.4"/>
    <polygon points="0,-40 34,-20 34,20 0,40 -34,20 -34,-20" fill="url(#g1)" opacity="0.3"/>
    <!-- Inner QR modules -->
    <rect x="-36" y="-36" width="16" height="16" rx="2" fill="#ffd700" opacity="0.7"/>
    <rect x="-12" y="-36" width="16" height="16" rx="2" fill="#c9a227" opacity="0.5"/>
    <rect x="20" y="-36" width="16" height="16" rx="2" fill="#ffd700" opacity="0.7"/>
    <rect x="-36" y="-12" width="16" height="16" rx="2" fill="#e8c547" opacity="0.6"/>
    <rect x="20" y="-12" width="16" height="16" rx="2" fill="#c9a227" opacity="0.5"/>
    <rect x="-36" y="14" width="16" height="16" rx="2" fill="#ffd700" opacity="0.7"/>
    <rect x="-12" y="14" width="16" height="16" rx="2" fill="#e8c547" opacity="0.6"/>
    <rect x="20" y="14" width="16" height="16" rx="2" fill="#ffd700" opacity="0.7"/>
  </g>
  <!-- Scattered data modules -->
  <g opacity="0.6">
    <rect x="220" y="220" width="20" height="20" rx="3" fill="#c9a227"/>
    <rect x="250" y="250" width="20" height="20" rx="3" fill="#ffd700"/>
    <rect x="310" y="220" width="20" height="20" rx="3" fill="#e8c547"/>
    <rect x="350" y="260" width="20" height="20" rx="3" fill="#c9a227"/>
    <rect x="220" y="310" width="20" height="20" rx="3" fill="#ffd700"/>
    <rect x="260" y="340" width="20" height="20" rx="3" fill="#c9a227"/>
    <rect x="340" y="310" width="20" height="20" rx="3" fill="#e8c547"/>
    <rect x="350" y="350" width="20" height="20" rx="3" fill="#ffd700"/>
  </g>
  <!-- Side data columns -->
  <g opacity="0.5">
    <rect x="40" y="220" width="18" height="18" rx="2" fill="#c9a227"/>
    <rect x="40" y="250" width="18" height="18" rx="2" fill="#ffd700"/>
    <rect x="40" y="310" width="18" height="18" rx="2" fill="#e8c547"/>
    <rect x="40" y="370" width="18" height="18" rx="2" fill="#c9a227"/>
    <rect x="70" y="240" width="18" height="18" rx="2" fill="#ffd700"/>
    <rect x="70" y="280" width="18" height="18" rx="2" fill="#c9a227"/>
    <rect x="70" y="340" width="18" height="18" rx="2" fill="#e8c547"/>
    <rect x="100" y="220" width="18" height="18" rx="2" fill="#c9a227"/>
    <rect x="100" y="290" width="18" height="18" rx="2" fill="#ffd700"/>
    <rect x="100" y="360" width="18" height="18" rx="2" fill="#c9a227"/>
    <rect x="540" y="220" width="18" height="18" rx="2" fill="#c9a227"/>
    <rect x="540" y="260" width="18" height="18" rx="2" fill="#ffd700"/>
    <rect x="540" y="320" width="18" height="18" rx="2" fill="#e8c547"/>
    <rect x="540" y="380" width="18" height="18" rx="2" fill="#c9a227"/>
    <rect x="510" y="240" width="18" height="18" rx="2" fill="#ffd700"/>
    <rect x="510" y="300" width="18" height="18" rx="2" fill="#c9a227"/>
    <rect x="510" y="350" width="18" height="18" rx="2" fill="#e8c547"/>
    <rect x="480" y="220" width="18" height="18" rx="2" fill="#c9a227"/>
    <rect x="480" y="280" width="18" height="18" rx="2" fill="#ffd700"/>
    <rect x="480" y="360" width="18" height="18" rx="2" fill="#c9a227"/>
  </g>
  <!-- Bottom data row -->
  <g opacity="0.6">
    <rect x="220" y="540" width="20" height="20" rx="3" fill="#c9a227"/>
    <rect x="260" y="530" width="20" height="20" rx="3" fill="#ffd700"/>
    <rect x="300" y="540" width="20" height="20" rx="3" fill="#e8c547"/>
    <rect x="340" y="520" width="20" height="20" rx="3" fill="#c9a227"/>
    <rect x="380" y="540" width="20" height="20" rx="3" fill="#ffd700"/>
    <rect x="420" y="520" width="20" height="20" rx="3" fill="#c9a227"/>
    <rect x="460" y="540" width="20" height="20" rx="3" fill="#e8c547"/>
    <rect x="500" y="530" width="20" height="20" rx="3" fill="#ffd700"/>
    <rect x="540" y="540" width="20" height="20" rx="3" fill="#c9a227"/>
  </g>
  <!-- Timing pattern -->
  <g opacity="0.4">
    <rect x="200" y="190" width="12" height="12" rx="1" fill="#ffd700"/>
    <rect x="224" y="190" width="12" height="12" rx="1" fill="#c9a227"/>
    <rect x="248" y="190" width="12" height="12" rx="1" fill="#ffd700"/>
    <rect x="272" y="190" width="12" height="12" rx="1" fill="#c9a227"/>
    <rect x="296" y="190" width="12" height="12" rx="1" fill="#ffd700"/>
    <rect x="320" y="190" width="12" height="12" rx="1" fill="#c9a227"/>
    <rect x="344" y="190" width="12" height="12" rx="1" fill="#ffd700"/>
    <rect x="368" y="190" width="12" height="12" rx="1" fill="#c9a227"/>
    <rect x="190" y="200" width="12" height="12" rx="1" fill="#ffd700"/>
    <rect x="190" y="224" width="12" height="12" rx="1" fill="#c9a227"/>
    <rect x="190" y="248" width="12" height="12" rx="1" fill="#ffd700"/>
    <rect x="190" y="272" width="12" height="12" rx="1" fill="#c9a227"/>
    <rect x="190" y="296" width="12" height="12" rx="1" fill="#ffd700"/>
    <rect x="190" y="320" width="12" height="12" rx="1" fill="#c9a227"/>
    <rect x="190" y="344" width="12" height="12" rx="1" fill="#ffd700"/>
    <rect x="190" y="368" width="12" height="12" rx="1" fill="#c9a227"/>
  </g>
</svg>